<svg width="877" height="522" viewBox="0 0 877 522" fill="none" xmlns="http://www.w3.org/2000/svg">
<path d="M106.42 453.08C77.86 453.08 55.3067 445.26 38.76 429.62C22.44 413.98 14.28 393.013 14.28 366.72C14.28 340.427 21.6467 319.347 36.38 303.48C51.34 287.613 71.6267 279.68 97.24 279.68C123.08 279.68 142.007 288.293 154.02 305.52C166.26 322.52 172.38 342.693 172.38 366.04V379.64H61.2C63.24 390.52 68.2267 399.247 76.16 405.82C84.0933 412.167 94.52 415.34 107.44 415.34C114.92 415.34 121.607 414.433 127.5 412.62C133.62 410.58 140.647 407.747 148.58 404.12L161.5 436.08C153.793 441.973 144.387 446.28 133.28 449C122.4 451.72 113.447 453.08 106.42 453.08ZM130.56 350.06C128.293 338.953 124.213 330.793 118.32 325.58C112.427 320.14 105.06 317.42 96.22 317.42C87.1533 317.42 79.56 320.253 73.44 325.92C67.32 331.36 63.3533 339.407 61.54 350.06H130.56ZM284.893 317.42C272.427 317.42 262.68 322.18 255.653 331.7C248.627 340.993 245.113 352.667 245.113 366.72C245.113 381 248.627 392.673 255.653 401.74C262.68 410.807 272.427 415.34 284.893 415.34C292.6 415.34 299.513 414.433 305.633 412.62C311.98 410.58 319.12 407.747 327.053 404.12L339.633 436.08C331.927 441.973 322.52 446.28 311.413 449C300.533 451.72 291.58 453.08 284.553 453.08C257.807 453.08 236.953 445.26 221.993 429.62C207.033 413.98 199.553 393.013 199.553 366.72C199.553 340.427 207.033 319.347 221.993 303.48C236.953 287.613 257.807 279.68 284.553 279.68C291.58 279.68 300.42 281.153 311.073 284.1C321.953 287.047 331.473 291.353 339.633 297.02L327.053 328.64C319.12 325.013 311.98 322.293 305.633 320.48C299.513 318.44 292.6 317.42 284.893 317.42ZM417.945 294.98C425.198 289.313 433.472 285.007 442.765 282.06C452.285 279.113 460.785 277.64 468.265 277.64C490.705 277.64 506.572 284.213 515.865 297.36C525.385 310.507 530.145 326.6 530.145 345.64V449H485.945V347.68C485.945 337.253 483.452 329.32 478.465 323.88C473.478 318.213 466.112 315.38 456.365 315.38C450.018 315.38 443.445 317.08 436.645 320.48C429.845 323.653 423.612 327.393 417.945 331.7V449H374.085V212.7L417.945 208.96V294.98Z" fill="#1A3A52"/>
<circle cx="706" cy="353" r="146" stroke="#1A3A52" stroke-width="8"/>
<circle cx="706" cy="353" r="59.5" fill="#E04D28" stroke="#E04D28"/>
<circle cx="706" cy="353" r="25" fill="#010101"/>
<path d="M583.029 380.431C578.101 368.222 576.47 353.779 578.339 338.557C580.208 323.335 585.508 307.899 593.709 293.817C601.91 279.735 612.711 267.526 625.009 258.423C637.307 249.318 650.645 243.657 663.661 241.976" stroke="#1A3A52" stroke-width="2"/>
<path d="M827.373 321.122C832.464 333.205 834.275 347.566 832.583 362.762C830.892 377.956 825.76 393.422 817.701 407.585C809.641 421.748 798.949 434.088 786.718 443.358C774.486 452.629 761.168 458.486 748.124 460.373" stroke="#1A3A52" stroke-width="2"/>
<path opacity="0.7" d="M609.083 380.105C598.609 356.682 598.585 331.75 608.975 309.713C619.37 287.665 639.549 269.877 665.997 259.564" stroke="#1A3A52" stroke-width="2"/>
<path opacity="0.7" d="M805.564 336.372C812.936 356.448 811.485 377.154 801.471 395.195C791.449 413.249 773.396 427.645 750.142 436.008" stroke="#1A3A52" stroke-width="2"/>
<rect x="559" y="480.78" width="52.553" height="25" rx="8" transform="rotate(-40 559 480.78)" fill="#1A3A52"/>
<rect x="415" y="473" width="169" height="25" rx="10" fill="#1A3A52"/>
<rect x="326" y="463" width="98" height="45" rx="15" fill="#1A3A52"/>
<rect x="346" y="505" width="7" height="17" rx="3.5" fill="#1A3A52"/>
</svg>
