<svg width="331" height="300" viewBox="0 0 331 300" fill="none" xmlns="http://www.w3.org/2000/svg">
<circle cx="153" cy="150" r="146" stroke="#1A3A52" stroke-width="8"/>
<circle cx="153" cy="150" r="145" fill="#1A3A52"/>
<circle cx="153" cy="150" r="59.5" fill="#E04D28" stroke="#E04D28"/>
<circle cx="153" cy="150" r="25" fill="#010101"/>
<path d="M37.0292 177.431C32.1008 165.222 30.4701 150.779 32.3392 135.557C34.2082 120.335 39.5077 104.899 47.7089 90.8169C55.91 76.7351 66.7113 64.5261 79.0085 55.4226C91.3067 46.3184 104.645 40.6575 117.661 38.9755" stroke="black" stroke-width="2"/>
<path opacity="0.7" d="M63.5096 181.356C53.036 157.934 53.0116 133.001 63.4017 110.964C73.7967 88.9168 93.976 71.1287 120.424 60.8155" stroke="black" stroke-width="2"/>
<path opacity="0.7" d="M249.564 126.372C256.936 146.448 255.485 167.154 245.471 185.195C235.449 203.249 217.396 217.645 194.142 226.008" stroke="black" stroke-width="2"/>
<path d="M272.373 118.122C277.464 130.205 279.275 144.566 277.583 159.762C275.892 174.956 270.76 190.422 262.701 204.585C254.641 218.748 243.949 231.088 231.718 240.358C219.486 249.629 206.168 255.486 193.124 257.373" stroke="black" stroke-width="2"/>
</svg>
