<svg width="1000" height="874" viewBox="0 0 1000 874" fill="none" xmlns="http://www.w3.org/2000/svg">
<g opacity="0.05">
<path fill-rule="evenodd" clip-rule="evenodd" d="M571.622 455.921C570.472 454.644 569.622 453.219 568.372 451.991L568.172 452.137C529.122 413.759 462.172 417.346 426.822 452.088C391.472 486.83 391.572 556.214 426.922 590.956C427.372 591.398 427.922 591.685 428.372 592.127C429.572 593.356 430.422 594.83 431.672 596.058L431.822 595.863C470.872 634.241 537.822 630.703 573.172 595.912C608.522 561.17 608.422 491.786 573.072 457.044C572.622 456.602 572.072 456.363 571.622 455.921ZM355.972 382.496L285.272 312.965C179.222 417.24 184.172 630.809 290.222 735.035L360.922 665.553C290.222 596.069 285.272 451.981 355.972 382.496ZM214.572 243.482L143.872 174C-68.278 382.501 -27.9781 700.29 148.822 874L219.522 804.518C78.122 665.55 73.1721 382.499 214.572 243.482ZM709.772 312.965L639.072 382.496C709.772 451.981 714.722 596.069 644.022 665.553L714.722 735.035C820.772 630.809 815.822 417.24 709.772 312.965ZM856.122 874L785.422 804.518C926.872 665.55 921.922 382.499 780.472 243.482L851.172 174C1027.97 347.759 1068.27 665.548 856.122 874Z" fill="white"/>
</g>
<circle cx="756" cy="648" r="145" fill="#D9D9D9"/>
<path d="M156.42 748.08C127.86 748.08 105.307 740.26 88.76 724.62C72.44 708.98 64.28 688.013 64.28 661.72C64.28 635.427 71.6467 614.347 86.38 598.48C101.34 582.613 121.627 574.68 147.24 574.68C173.08 574.68 192.007 583.293 204.02 600.52C216.26 617.52 222.38 637.693 222.38 661.04V674.64H111.2C113.24 685.52 118.227 694.247 126.16 700.82C134.093 707.167 144.52 710.34 157.44 710.34C164.92 710.34 171.607 709.433 177.5 707.62C183.62 705.58 190.647 702.747 198.58 699.12L211.5 731.08C203.793 736.973 194.387 741.28 183.28 744C172.4 746.72 163.447 748.08 156.42 748.08ZM180.56 645.06C178.293 633.953 174.213 625.793 168.32 620.58C162.427 615.14 155.06 612.42 146.22 612.42C137.153 612.42 129.56 615.253 123.44 620.92C117.32 626.36 113.353 634.407 111.54 645.06H180.56ZM334.893 612.42C322.427 612.42 312.68 617.18 305.653 626.7C298.627 635.993 295.113 647.667 295.113 661.72C295.113 676 298.627 687.673 305.653 696.74C312.68 705.807 322.427 710.34 334.893 710.34C342.6 710.34 349.513 709.433 355.633 707.62C361.98 705.58 369.12 702.747 377.053 699.12L389.633 731.08C381.927 736.973 372.52 741.28 361.413 744C350.533 746.72 341.58 748.08 334.553 748.08C307.807 748.08 286.953 740.26 271.993 724.62C257.033 708.98 249.553 688.013 249.553 661.72C249.553 635.427 257.033 614.347 271.993 598.48C286.953 582.613 307.807 574.68 334.553 574.68C341.58 574.68 350.42 576.153 361.073 579.1C371.953 582.047 381.473 586.353 389.633 592.02L377.053 623.64C369.12 620.013 361.98 617.293 355.633 615.48C349.513 613.44 342.6 612.42 334.893 612.42ZM467.945 589.98C475.198 584.313 483.472 580.007 492.765 577.06C502.285 574.113 510.785 572.64 518.265 572.64C540.705 572.64 556.572 579.213 565.865 592.36C575.385 605.507 580.145 621.6 580.145 640.64V744H535.945V642.68C535.945 632.253 533.452 624.32 528.465 618.88C523.478 613.213 516.112 610.38 506.365 610.38C500.018 610.38 493.445 612.08 486.645 615.48C479.845 618.653 473.612 622.393 467.945 626.7V744H424.085V507.7L467.945 503.96V589.98Z" fill="#E4E4E4"/>
<circle cx="756" cy="648" r="146" stroke="#D9D9D9" stroke-width="8"/>
<circle cx="756" cy="648" r="59.5" fill="#E04D28" stroke="#E04D28"/>
<circle cx="756" cy="648" r="25" fill="#010101"/>
<path d="M633.029 675.431C628.101 663.222 626.47 648.779 628.339 633.557C630.208 618.335 635.508 602.899 643.709 588.817C651.91 574.735 662.711 562.526 675.009 553.423C687.307 544.318 700.645 538.657 713.661 536.976" stroke="black" stroke-width="2"/>
<path d="M877.373 616.122C882.464 628.205 884.275 642.566 882.583 657.762C880.892 672.956 875.76 688.422 867.701 702.585C859.641 716.748 848.949 729.088 836.718 738.358C824.486 747.629 811.168 753.486 798.124 755.373" stroke="black" stroke-width="2"/>
<path opacity="0.7" d="M659.083 675.105C648.609 651.682 648.585 626.75 658.975 604.713C669.37 582.665 689.549 564.877 715.997 554.564" stroke="black" stroke-width="2"/>
<path opacity="0.7" d="M855.564 631.372C862.936 651.448 861.485 672.154 851.471 690.195C841.449 708.249 823.396 722.645 800.142 731.008" stroke="black" stroke-width="2"/>
<rect x="609" y="775.78" width="52.553" height="25" rx="8" transform="rotate(-40 609 775.78)" fill="#D9D9D9"/>
<rect x="465" y="768" width="169" height="25" rx="10" fill="#D9D9D9"/>
<rect x="376" y="758" width="98" height="45" rx="15" fill="#D9D9D9"/>
<rect x="396" y="800" width="7" height="17" rx="3.5" fill="#D9D9D9"/>
<circle cx="756" cy="648" r="59.5" stroke="black"/>
<path d="M111.62 254.52H84.42V325.24H112.3C125.447 325.24 136.327 322.633 144.94 317.42C153.553 311.98 157.86 303.14 157.86 290.9C157.86 277.98 153.78 268.687 145.62 263.02C137.46 257.353 126.127 254.52 111.62 254.52ZM174.86 449L125.9 360.6C123.407 360.827 120.8 361.053 118.08 361.28C115.36 361.28 112.64 361.28 109.92 361.28H84.42V449H40.56V217.8H112.98C138.14 217.8 159.673 223.58 177.58 235.14C195.487 246.7 204.44 264.607 204.44 288.86C204.44 303.14 200.7 315.493 193.22 325.92C185.967 336.12 176.56 344.053 165 349.72L221.78 449H174.86ZM279.224 399.7C279.224 404.46 281.151 408.767 285.004 412.62C288.857 416.247 293.957 418.06 300.304 418.06C306.424 418.06 312.544 416.7 318.664 413.98C325.011 411.26 331.017 407.18 336.684 401.74V376.58H303.364C295.657 376.58 289.651 378.96 285.344 383.72C281.264 388.48 279.224 393.807 279.224 399.7ZM300.984 453.08C280.811 453.08 265.851 448.207 256.104 438.46C246.357 428.487 241.484 415.567 241.484 399.7C241.484 382.7 247.264 369.667 258.824 360.6C270.384 351.533 285.457 347 304.044 347H336.344C336.117 338.613 333.624 332.153 328.864 327.62C324.331 322.86 317.984 320.48 309.824 320.48C302.117 320.48 293.731 321.613 284.664 323.88C275.597 325.92 268.004 328.413 261.884 331.36L249.984 294.64C256.331 290.333 265.964 286.82 278.884 284.1C292.031 281.153 302.117 279.68 309.144 279.68C328.864 279.68 345.751 285.46 359.804 297.02C373.857 308.353 380.884 322.86 380.884 340.54V449H358.104L347.224 435.06C341.104 439.82 333.851 444.013 325.464 447.64C317.304 451.267 309.144 453.08 300.984 453.08ZM501.457 315.38C486.043 315.38 475.277 320.82 469.157 331.7C463.263 342.58 460.317 353.8 460.317 365.36C460.317 378.28 463.037 389.84 468.477 400.04C473.917 410.24 484.91 415.34 501.457 415.34C506.67 415.34 512.11 414.207 517.777 411.94C523.67 409.447 529.11 406.613 534.097 403.44V327.28C529.11 323.88 523.67 321.047 517.777 318.78C512.11 316.513 506.67 315.38 501.457 315.38ZM578.637 208.96V449H555.517L543.277 433.02C535.797 439.367 526.957 444.353 516.757 447.98C506.783 451.38 497.717 453.08 489.557 453.08C465.53 453.08 447.057 444.693 434.137 427.92C421.217 411.147 414.757 390.293 414.757 365.36C414.757 340.427 421.557 319.573 435.157 302.8C448.983 286.027 467.797 277.64 491.597 277.64C497.717 277.64 504.63 278.773 512.337 281.04C520.043 283.08 527.297 286.027 534.097 289.88V212.7L578.637 208.96ZM644.868 211C651.894 211 657.788 213.38 662.548 218.14C667.534 222.9 670.028 228.793 670.028 235.82C670.028 242.847 667.534 248.74 662.548 253.5C657.788 258.26 651.894 260.64 644.868 260.64C638.068 260.64 632.288 258.26 627.528 253.5C622.768 248.74 620.388 242.847 620.388 235.82C620.388 228.793 622.768 222.9 627.528 218.14C632.288 213.38 638.068 211 644.868 211ZM666.968 284.1V449H622.768V284.1H666.968Z" fill="white"/>
<circle cx="775.5" cy="380.5" r="72.5" fill="#D9D9D9"/>
<path d="M783.146 273.742C800.065 273.875 816.635 278.994 831.124 288.566C845.614 298.138 857.491 311.81 865.516 328.155C873.54 344.5 877.418 362.918 876.743 381.485C876.068 400.052 870.866 418.086 861.68 433.705L855.469 429.306C863.936 414.91 868.731 398.287 869.353 381.173C869.975 364.059 866.401 347.083 859.005 332.017C851.608 316.952 840.66 304.35 827.305 295.527C813.95 286.705 798.677 281.986 783.082 281.863L783.146 273.742Z" fill="#D9D9D9"/>
<circle cx="776" cy="380" r="25" fill="#010101"/>
<path d="M709.487 267.65C723.356 256.671 739.141 248.674 755.941 244.114C772.741 239.555 790.227 238.522 807.401 241.076C824.575 243.629 841.1 249.719 856.033 258.996C870.966 268.274 884.014 280.558 894.433 295.148C904.851 309.737 912.436 326.346 916.754 344.026C921.072 361.706 922.039 380.111 919.6 398.19C917.16 416.27 911.361 433.669 902.535 449.395C893.709 465.12 882.028 478.865 868.159 489.843L861.949 481.147C874.733 471.028 885.499 458.36 893.635 443.865C901.77 429.37 907.115 413.333 909.363 396.668C911.612 380.004 910.721 363.04 906.741 346.744C902.761 330.448 895.769 315.139 886.166 301.691C876.563 288.244 864.536 276.921 850.772 268.369C837.008 259.818 821.777 254.205 805.947 251.852C790.117 249.498 774 250.45 758.515 254.652C743.03 258.855 728.48 266.226 715.697 276.345L709.487 267.65Z" fill="#D9D9D9"/>
</svg>
