<svg viewBox="0 0 763.27 144" xmlns="http://www.w3.org/2000/svg"><title>CoverArtArchive_logo</title><path d="m66 0v144l61-35v-74z" fill="#eb743b"/><path d="m61 0-61 35v74l61 35z" fill="#20656c"/><g opacity=".07" transform="translate(-4.35 -2.82)"><path d="m87.66 94.56a2.11 2.11 0 1 1 -.23 1.6 2.1 2.1 0 0 1 .23-1.6zm12.6 22.36a2.08 2.08 0 0 1 -1.37.51 2.11 2.11 0 0 1 -1.38-3.72 2.08 2.08 0 0 1 1.37-.51 2.12 2.12 0 0 1 2.11 2.28 2.09 2.09 0 0 1 -.73 1.44z"/><path d="m79.36 48.43h.21z"/><path d="m90.73 58.08a2.07 2.07 0 0 1 .67-.66 2.11 2.11 0 1 1 1.11 3.91 2.1 2.1 0 0 1 -1.12-.33 2.13 2.13 0 0 1 -.66-2.92zm6.38-20.19a2.14 2.14 0 0 1 -2.91.65l-.1-.06a2.11 2.11 0 1 1 3.29-2.17 2.08 2.08 0 0 1 -.28 1.58z"/><path d="m113.88 49.49a2.11 2.11 0 1 1 3.57 2.26 2.14 2.14 0 0 1 -2.91.65l-.09-.06a2.1 2.1 0 0 1 -.57-2.85zm0 23.46a2.11 2.11 0 1 1 3.57 2.26 2.14 2.14 0 0 1 -2.91.65l-.09-.06a2.1 2.1 0 0 1 -.57-2.8zm0 26.3a2.11 2.11 0 1 1 3.57 2.26 2.14 2.14 0 0 1 -2.91.65l-.09-.06a2.11 2.11 0 0 1 -.57-2.84z"/><path d="m103.53 108.93a6.12 6.12 0 0 0 -10.72 4.74 19.86 19.86 0 0 1 -5.33 1.33 4 4 0 0 1 -2.22-1 10.71 10.71 0 0 0 -4.15-1.85 37.64 37.64 0 0 0 8.59-12.81 6.12 6.12 0 1 0 -5.48-9.24 6.12 6.12 0 0 0 1.62 8.06c-4.05 9.22-9.22 13.08-12.57 14.68a2 2 0 0 0 -.36.17 11.26 11.26 0 0 1 -2.56.81v4a12.59 12.59 0 0 0 4.25-1.19c5.35-1.36 6.84-.35 8.41.71a7.88 7.88 0 0 0 4.26 1.66h.31a23.61 23.61 0 0 0 7-1.72 6.13 6.13 0 0 0 4.31 1.72 6.12 6.12 0 0 0 4.64-10.1zm-15.87-16.78a2.11 2.11 0 1 1 -.23 1.6 2.1 2.1 0 0 1 .23-1.6zm12.6 22.36a2.08 2.08 0 0 1 -1.37.51 2.11 2.11 0 0 1 -1.38-3.72 2.08 2.08 0 0 1 1.37-.51 2.12 2.12 0 0 1 2.11 2.28 2.09 2.09 0 0 1 -.73 1.44z"/><path d="m79.36 46h.21z"/><path d="m101.3 33a6.12 6.12 0 1 0 -11 4.82 13.35 13.35 0 0 1 -9.94 4.29 29.15 29.15 0 0 0 -10-2.32v4a24.8 24.8 0 0 1 8.74 2.21 21.59 21.59 0 0 1 8.61 7 6.32 6.32 0 0 0 -.38.54 6.12 6.12 0 1 0 8.45-1.91 6.22 6.22 0 0 0 -4.67-.75 26 26 0 0 0 -5.34-5.57 16.35 16.35 0 0 0 7.78-5.1 6.15 6.15 0 0 0 1.77.27 6.13 6.13 0 0 0 6-7.45zm-10.57 22.67a2.07 2.07 0 0 1 .67-.66 2.11 2.11 0 1 1 1.11 3.91 2.1 2.1 0 0 1 -1.12-.33 2.13 2.13 0 0 1 -.66-2.92zm6.38-20.19a2.14 2.14 0 0 1 -2.91.65l-.1-.06a2.11 2.11 0 1 1 3.29-2.17 2.08 2.08 0 0 1 -.28 1.59z"/><path d="m110 74a6 6 0 0 0 2.11 2.65l.28.19a6.12 6.12 0 1 0 3.27-11.29h-.37a25.73 25.73 0 0 1 0-11.26h.34a6.12 6.12 0 1 0 -4.15-1.63l.07.06a28.65 28.65 0 0 0 0 14.42c-.14.13-.29.25-.43.4a6.24 6.24 0 0 0 -.63.82 6.16 6.16 0 0 0 -.71 1.58 15.2 15.2 0 0 0 -6.78 2.78c-2 1.32-4 2.57-9.64 2.67a32.64 32.64 0 0 0 -5.36-.12c-1.43.05-2.91.11-4.85 0-1.33-.07-2.1-.88-3.46-2.42-1.8-2.05-4.22-4.65-9.37-5v4c3.29.3 4.8 1.89 6.36 3.67s3.17 3.62 6.26 3.78c2.12.11 3.76.05 5.21 0a24.22 24.22 0 0 1 7.85.7c2.61.64 12.1 9.67 14.77 14.32-.11.14-.22.28-.31.43a6.1 6.1 0 0 0 1.62 8.25l.28.19a6.12 6.12 0 1 0 3.27-11.29 6.18 6.18 0 0 0 -1.54.2c-2.56-4.19-8.65-10.46-13.19-13.79a18.18 18.18 0 0 0 4.21-2.19 11.31 11.31 0 0 1 4.89-2.12zm3.88-26.92a2.11 2.11 0 1 1 3.57 2.26 2.14 2.14 0 0 1 -2.91.65l-.09-.06a2.1 2.1 0 0 1 -.57-2.84zm0 23.46a2.11 2.11 0 1 1 3.57 2.26 2.14 2.14 0 0 1 -2.91.65l-.09-.06a2.1 2.1 0 0 1 -.57-2.84zm0 26.3a2.11 2.11 0 1 1 3.57 2.26 2.14 2.14 0 0 1 -2.91.65l-.09-.06a2.11 2.11 0 0 1 -.57-2.84z"/></g><path d="m103.53 111.93a6.12 6.12 0 0 0 -10.72 4.74 19.86 19.86 0 0 1 -5.33 1.33 4 4 0 0 1 -2.22-1 10.71 10.71 0 0 0 -4.15-1.85 37.64 37.64 0 0 0 8.58-12.83 6.12 6.12 0 1 0 -5.48-9.24 6.12 6.12 0 0 0 1.62 8.06c-4.05 9.22-9.22 13.08-12.57 14.68a2 2 0 0 0 -.36.17 11.26 11.26 0 0 1 -2.56.81v4a12.59 12.59 0 0 0 4.25-1.19c5.35-1.36 6.84-.35 8.41.71a7.88 7.88 0 0 0 4.27 1.68h.31a23.61 23.61 0 0 0 7-1.72 6.13 6.13 0 0 0 4.31 1.72 6.12 6.12 0 0 0 4.64-10.1zm-15.87-16.78a2.11 2.11 0 1 1 -.23 1.6 2.1 2.1 0 0 1 .23-1.6zm12.6 22.36a2.08 2.08 0 0 1 -1.37.51 2.11 2.11 0 0 1 -1.38-3.72 2.08 2.08 0 0 1 1.37-.51 2.12 2.12 0 0 1 2.11 2.28 2.09 2.09 0 0 1 -.73 1.44z" fill="#d3562c" transform="translate(-4.35 -2.82)"/><path d="m79.36 48.43h.21z" transform="translate(-4.35 -2.82)"/><path d="m101.3 36a6.12 6.12 0 1 0 -11 4.82 13.35 13.35 0 0 1 -9.94 4.29 29.15 29.15 0 0 0 -10-2.32v4a24.81 24.81 0 0 1 8.74 2.21 21.59 21.59 0 0 1 8.61 7 6.32 6.32 0 0 0 -.38.54 6.12 6.12 0 1 0 8.45-1.91 6.22 6.22 0 0 0 -4.67-.75 26 26 0 0 0 -5.34-5.57 16.35 16.35 0 0 0 7.78-5.1 6.15 6.15 0 0 0 1.77.27 6.13 6.13 0 0 0 6-7.45zm-10.57 22.68a2.07 2.07 0 0 1 .67-.66 2.11 2.11 0 1 1 1.11 3.91 2.1 2.1 0 0 1 -1.12-.33 2.13 2.13 0 0 1 -.66-2.92zm6.38-20.19a2.14 2.14 0 0 1 -2.91.65l-.1-.06a2.11 2.11 0 1 1 3.29-2.17 2.08 2.08 0 0 1 -.28 1.58z" fill="#d3562c" transform="translate(-4.35 -2.82)"/><path d="m110 77a6 6 0 0 0 2.11 2.65l.28.19a6.12 6.12 0 1 0 3.27-11.29h-.37a25.73 25.73 0 0 1 0-11.26h.34a6.12 6.12 0 1 0 -4.15-1.63l.07.06a28.65 28.65 0 0 0 0 14.42c-.14.13-.29.25-.43.4a6.24 6.24 0 0 0 -.63.82 6.16 6.16 0 0 0 -.71 1.58 15.2 15.2 0 0 0 -6.78 2.78c-2 1.32-4 2.57-9.64 2.67a32.64 32.64 0 0 0 -5.36-.12c-1.43.05-2.91.11-4.85 0-1.33-.07-2.1-.88-3.46-2.42-1.8-2.05-4.22-4.65-9.37-5v4c3.29.3 4.8 1.89 6.36 3.67s3.17 3.62 6.26 3.78c2.12.11 3.76.05 5.21 0a24.22 24.22 0 0 1 7.85.7c2.61.64 12.1 9.67 14.77 14.32-.11.14-.22.28-.31.43a6.1 6.1 0 0 0 1.62 8.25l.28.19a6.12 6.12 0 1 0 3.27-11.29 6.18 6.18 0 0 0 -1.54.2c-2.56-4.19-8.65-10.46-13.19-13.79a18.18 18.18 0 0 0 4.21-2.19 11.31 11.31 0 0 1 4.89-2.12zm3.88-26.92a2.11 2.11 0 1 1 3.57 2.26 2.14 2.14 0 0 1 -2.91.65l-.09-.06a2.1 2.1 0 0 1 -.57-2.84zm0 23.46a2.11 2.11 0 1 1 3.57 2.26 2.14 2.14 0 0 1 -2.91.65l-.09-.06a2.1 2.1 0 0 1 -.57-2.84zm0 26.3a2.11 2.11 0 1 1 3.57 2.26 2.14 2.14 0 0 1 -2.91.65l-.09-.06a2.11 2.11 0 0 1 -.57-2.84z" fill="#d3562c" transform="translate(-4.35 -2.82)"/><path d="m103.53 108.93a6.12 6.12 0 0 0 -10.72 4.74 19.86 19.86 0 0 1 -5.33 1.33 4 4 0 0 1 -2.22-1 10.71 10.71 0 0 0 -4.15-1.85 37.64 37.64 0 0 0 8.59-12.81 6.12 6.12 0 1 0 -5.48-9.24 6.12 6.12 0 0 0 1.62 8.06c-4.05 9.22-9.22 13.08-12.57 14.68a2 2 0 0 0 -.36.17 11.26 11.26 0 0 1 -2.56.81v4a12.59 12.59 0 0 0 4.25-1.19c5.35-1.36 6.84-.35 8.41.71a7.88 7.88 0 0 0 4.26 1.66h.31a23.61 23.61 0 0 0 7-1.72 6.13 6.13 0 0 0 4.31 1.72 6.12 6.12 0 0 0 4.64-10.1zm-15.87-16.78a2.11 2.11 0 1 1 -.23 1.6 2.1 2.1 0 0 1 .23-1.6zm12.6 22.36a2.08 2.08 0 0 1 -1.37.51 2.11 2.11 0 0 1 -1.38-3.72 2.08 2.08 0 0 1 1.37-.51 2.12 2.12 0 0 1 2.11 2.28 2.09 2.09 0 0 1 -.73 1.44z" fill="#fffedb" transform="translate(-4.35 -2.82)"/><path d="m79.36 46h.21z" fill="#fffedb" transform="translate(-4.35 -2.82)"/><path d="m101.3 33a6.12 6.12 0 1 0 -11 4.82 13.35 13.35 0 0 1 -9.94 4.29 29.15 29.15 0 0 0 -10-2.32v4a24.8 24.8 0 0 1 8.74 2.21 21.59 21.59 0 0 1 8.61 7 6.32 6.32 0 0 0 -.38.54 6.12 6.12 0 1 0 8.45-1.91 6.22 6.22 0 0 0 -4.67-.75 26 26 0 0 0 -5.34-5.57 16.35 16.35 0 0 0 7.78-5.1 6.15 6.15 0 0 0 1.77.27 6.13 6.13 0 0 0 6-7.45zm-10.57 22.67a2.07 2.07 0 0 1 .67-.66 2.11 2.11 0 1 1 1.11 3.91 2.1 2.1 0 0 1 -1.12-.33 2.13 2.13 0 0 1 -.66-2.92zm6.38-20.19a2.14 2.14 0 0 1 -2.91.65l-.1-.06a2.11 2.11 0 1 1 3.29-2.17 2.08 2.08 0 0 1 -.28 1.59z" fill="#fffedb" transform="translate(-4.35 -2.82)"/><path d="m110 74a6 6 0 0 0 2.11 2.65l.28.19a6.12 6.12 0 1 0 3.27-11.29h-.37a25.73 25.73 0 0 1 0-11.26h.34a6.12 6.12 0 1 0 -4.15-1.63l.07.06a28.65 28.65 0 0 0 0 14.42c-.14.13-.29.25-.43.4a6.24 6.24 0 0 0 -.63.82 6.16 6.16 0 0 0 -.71 1.58 15.2 15.2 0 0 0 -6.78 2.78c-2 1.32-4 2.57-9.64 2.67a32.64 32.64 0 0 0 -5.36-.12c-1.43.05-2.91.11-4.85 0-1.33-.07-2.1-.88-3.46-2.42-1.8-2.05-4.22-4.65-9.37-5v4c3.29.3 4.8 1.89 6.36 3.67s3.17 3.62 6.26 3.78c2.12.11 3.76.05 5.21 0a24.22 24.22 0 0 1 7.85.7c2.61.64 12.1 9.67 14.77 14.32-.11.14-.22.28-.31.43a6.1 6.1 0 0 0 1.62 8.25l.28.19a6.12 6.12 0 1 0 3.27-11.29 6.18 6.18 0 0 0 -1.54.2c-2.56-4.19-8.65-10.46-13.19-13.79a18.18 18.18 0 0 0 4.21-2.19 11.31 11.31 0 0 1 4.89-2.12zm3.88-26.92a2.11 2.11 0 1 1 3.57 2.26 2.14 2.14 0 0 1 -2.91.65l-.09-.06a2.1 2.1 0 0 1 -.57-2.84zm0 23.46a2.11 2.11 0 1 1 3.57 2.26 2.14 2.14 0 0 1 -2.91.65l-.09-.06a2.1 2.1 0 0 1 -.57-2.84zm0 26.3a2.11 2.11 0 1 1 3.57 2.26 2.14 2.14 0 0 1 -2.91.65l-.09-.06a2.11 2.11 0 0 1 -.57-2.84z" fill="#fffedb" transform="translate(-4.35 -2.82)"/><path d="m13.09 103.09 7.45-1.48v-45.9l-7.45-1.48z" fill="#264346"/><path d="m17.45 105.91v-48.86l7.44 1.48v-2.62l-8.35-1.85h-.18-.17a.66.66 0 0 0 -.16.1.75.75 0 0 0 -.14.15 1 1 0 0 0 -.12.19 1.37 1.37 0 0 0 -.09.23 1.85 1.85 0 0 0 -.05.25 2.08 2.08 0 0 0 0 .27v52.45a2 2 0 0 0 0 .27 1.82 1.82 0 0 0 .05.25 1.43 1.43 0 0 0 .09.23 1.16 1.16 0 0 0 .12.19.77.77 0 0 0 .14.14.68.68 0 0 0 .16.09h.17.18l8.35-1.85v-2.62z" fill="#264346" transform="translate(-4.35 -2.82)"/><path d="m23.32 108.55 9.68-1.64v-56.49l-9.68-1.64z" fill="#264346"/><path d="m27.68 111.37v-59.77l9.67 1.64v-3.24l-7.26-1.37-3.8-.71a1.08 1.08 0 0 0 -.27 0 1.06 1.06 0 0 0 -.5.16 1.13 1.13 0 0 0 -.21.18 1.29 1.29 0 0 0 -.17.23 1.48 1.48 0 0 0 -.13.27 1.73 1.73 0 0 0 -.08.31 2.06 2.06 0 0 0 0 .33v64.18a2.07 2.07 0 0 0 0 .33 1.75 1.75 0 0 0 .08.31 1.52 1.52 0 0 0 .13.28 1.32 1.32 0 0 0 .17.23 1.13 1.13 0 0 0 .21.18 1.09 1.09 0 0 0 .24.11 1 1 0 0 0 .26 0 1.08 1.08 0 0 0 .27 0l3.8-.71 7.26-1.31v-3.23z" fill="#264346" transform="translate(-4.35 -2.82)"/><path d="m37.04 43.65h23.96v70.03h-23.96z" fill="#264346"/><path d="m37.35 44.45v74.07a2 2 0 0 0 2 2h26v-4h-24v-70h24v-4h-26a2 2 0 0 0 -2 1.93z" fill="#264346" transform="translate(-4.35 -2.82)"/><path d="m13.09 100.09 7.45-1.48v-45.9l-7.45-1.48z" fill="#20656c"/><path d="m17.45 102.91v-48.86l7.44 1.48v-2.62l-8.35-1.85h-.18-.17a.66.66 0 0 0 -.16.1.75.75 0 0 0 -.14.15 1 1 0 0 0 -.12.19 1.37 1.37 0 0 0 -.09.23 1.85 1.85 0 0 0 -.05.25 2.08 2.08 0 0 0 0 .27v52.45a2 2 0 0 0 0 .27 1.82 1.82 0 0 0 .05.25 1.43 1.43 0 0 0 .09.23 1.16 1.16 0 0 0 .12.19.77.77 0 0 0 .14.14.68.68 0 0 0 .16.09h.17.18l8.35-1.85v-2.62z" fill="#fffedb" transform="translate(-4.35 -2.82)"/><path d="m23.32 105.55 9.68-1.64v-56.49l-9.68-1.64z" fill="#20656c"/><path d="m27.68 108.37v-59.77l9.67 1.64v-3.24l-7.26-1.37-3.8-.71a1.08 1.08 0 0 0 -.27 0 1.06 1.06 0 0 0 -.5.16 1.13 1.13 0 0 0 -.21.18 1.29 1.29 0 0 0 -.17.23 1.48 1.48 0 0 0 -.13.27 1.73 1.73 0 0 0 -.08.31 2.06 2.06 0 0 0 0 .33v64.18a2.07 2.07 0 0 0 0 .33 1.75 1.75 0 0 0 .08.31 1.52 1.52 0 0 0 .13.28 1.32 1.32 0 0 0 .17.23 1.13 1.13 0 0 0 .21.18 1.09 1.09 0 0 0 .24.11 1 1 0 0 0 .26 0 1.08 1.08 0 0 0 .27 0l3.8-.71 7.26-1.31v-3.23z" fill="#fffedb" transform="translate(-4.35 -2.82)"/><path d="m37.04 40.65h23.96v70.03h-23.96z" fill="#579ca0"/><g transform="translate(-4.35 -2.82)"><path d="m37.35 41.45v74.07a2 2 0 0 0 2 2h26v-4h-24v-70h24v-4h-26a2 2 0 0 0 -2 1.93z" fill="#fffedb"/><path d="m199 84.29a20.53 20.53 0 0 1 -1.84 7.84 18 18 0 0 1 -4.59 6.09 21.1 21.1 0 0 1 -7 3.95 28.07 28.07 0 0 1 -9.17 1.41 24.69 24.69 0 0 1 -9.79-1.84 19.88 19.88 0 0 1 -7.29-5.28 23.27 23.27 0 0 1 -4.55-8.38 36.84 36.84 0 0 1 -1.65-11.08v-3a35.28 35.28 0 0 1 1.64-11.11 24.07 24.07 0 0 1 4.66-8.4 20.45 20.45 0 0 1 7.28-5.32 23.37 23.37 0 0 1 9.47-1.86 27.81 27.81 0 0 1 9.46 1.48 20.35 20.35 0 0 1 7 4.12 18.9 18.9 0 0 1 4.47 6.24 24.35 24.35 0 0 1 2 7.86h-13.19a15.52 15.52 0 0 0 -.62-4.06 7 7 0 0 0 -1.71-2.95 7.47 7.47 0 0 0 -3-1.77 14.19 14.19 0 0 0 -4.44-.6 9.39 9.39 0 0 0 -4.25.9 7.46 7.46 0 0 0 -3 2.86 14.89 14.89 0 0 0 -1.79 5.06 41.07 41.07 0 0 0 -.58 7.46v3a45 45 0 0 0 .53 7.44 15.14 15.14 0 0 0 1.67 5.06 7 7 0 0 0 3 2.88 10.42 10.42 0 0 0 4.57.9q4.55 0 7-2.14t2.56-6.8z" fill="#20656c"/><path d="m203 82.11a25.65 25.65 0 0 1 1.28-8.23 18.72 18.72 0 0 1 3.76-6.58 17 17 0 0 1 6.16-4.3 23.61 23.61 0 0 1 16.88 0 17 17 0 0 1 6.15 4.34 18.74 18.74 0 0 1 3.77 6.53 25.68 25.68 0 0 1 1.28 8.23v.79a26 26 0 0 1 -1.28 8.26 18.35 18.35 0 0 1 -3.74 6.54 17.17 17.17 0 0 1 -6.15 4.32 23.61 23.61 0 0 1 -16.88 0 17.35 17.35 0 0 1 -6.17-4.32 18.41 18.41 0 0 1 -3.78-6.54 25.6 25.6 0 0 1 -1.28-8.25zm12.67.79a27 27 0 0 0 .32 4.29 10.58 10.58 0 0 0 1.13 3.46 6.19 6.19 0 0 0 2.17 2.35 6.28 6.28 0 0 0 3.38.85 5.76 5.76 0 0 0 5.45-3.16 11.22 11.22 0 0 0 1.13-3.46 25.62 25.62 0 0 0 .34-4.29v-.79a26.61 26.61 0 0 0 -.32-4.21 10.8 10.8 0 0 0 -1.13-3.48 6.47 6.47 0 0 0 -2.14-2.46 6.07 6.07 0 0 0 -3.38-.88 5.9 5.9 0 0 0 -3.33.88 6.37 6.37 0 0 0 -2.12 2.37 11.46 11.46 0 0 0 -1.17 3.53 25.15 25.15 0 0 0 -.34 4.21z" fill="#20656c"/><path d="m263.51 87.75 6.43-25.6h13.35l-13.29 40.67h-12.92l-13.27-40.68h13.38z" fill="#20656c"/><path d="m306.26 103.58a23.53 23.53 0 0 1 -8.87-1.58 19.18 19.18 0 0 1 -6.58-4.29 18.54 18.54 0 0 1 -4.08-6.28 20.5 20.5 0 0 1 -1.41-7.59v-1.43a27.26 27.26 0 0 1 1.22-8.29 18.49 18.49 0 0 1 3.68-6.67 17.24 17.24 0 0 1 6.13-4.45 21.05 21.05 0 0 1 8.55-1.62 20.55 20.55 0 0 1 7.76 1.39 15.9 15.9 0 0 1 5.83 4 17.52 17.52 0 0 1 3.65 6.23 25.47 25.47 0 0 1 1.26 8.27v5.15h-25.19a9.13 9.13 0 0 0 3 5.38 8.83 8.83 0 0 0 5.94 2 13.87 13.87 0 0 0 5.09-1 10.24 10.24 0 0 0 4.31-3.23l5.79 6.84a14.71 14.71 0 0 1 -2.5 2.63 17.42 17.42 0 0 1 -3.55 2.27 22.53 22.53 0 0 1 -4.55 1.62 22.79 22.79 0 0 1 -5.48.65zm-1.43-32.41a6.34 6.34 0 0 0 -2.78.56 5.46 5.46 0 0 0 -1.94 1.54 7.63 7.63 0 0 0 -1.22 2.33 16.76 16.76 0 0 0 -.68 2.93h12.79v-1a6.28 6.28 0 0 0 -1.54-4.72 6.14 6.14 0 0 0 -4.63-1.64z" fill="#20656c"/><path d="m353.11 73.61-.92-.09-1.13-.09-1.15-.08q-.56 0-1 0a11.24 11.24 0 0 0 -4.92.92 5.65 5.65 0 0 0 -2.75 2.84v25.75h-12.65v-40.72h11.88l.41 5.23a12.38 12.38 0 0 1 3.74-4.4 8.74 8.74 0 0 1 5.17-1.58 15.5 15.5 0 0 1 1.86.11 10.23 10.23 0 0 1 1.67.34z" fill="#20656c"/><path d="m408.52 92.6h-18.08l-3.16 10.23h-14.1l20.08-54.74h12.41l20.23 54.74h-14.18zm-14.92-10.19h11.77l-5.9-19z" fill="#20656c"/><path d="m453.9 73.61-.92-.09-1.13-.09-1.15-.08q-.56 0-1 0a11.24 11.24 0 0 0 -4.92.92 5.65 5.65 0 0 0 -2.75 2.84v25.75h-12.64v-40.72h11.88l.41 5.23a12.38 12.38 0 0 1 3.74-4.4 8.74 8.74 0 0 1 5.17-1.58 15.5 15.5 0 0 1 1.86.11 10.23 10.23 0 0 1 1.67.34z" fill="#20656c"/><path d="m475.11 52v10.14h6.69v8.8h-6.69v18.61a8 8 0 0 0 .21 2 2.71 2.71 0 0 0 .68 1.25 2.59 2.59 0 0 0 1.26.66 8.62 8.62 0 0 0 2 .19q1.09 0 1.8-.06t1.35-.17v9.06a23.77 23.77 0 0 1 -3.38.81 23.36 23.36 0 0 1 -3.76.28 19.46 19.46 0 0 1 -5.43-.7 10 10 0 0 1 -4-2.2 9.49 9.49 0 0 1 -2.48-3.87 17 17 0 0 1 -.85-5.68v-20.18h-5.19v-8.8h5.19v-10.14z" fill="#20656c"/><path d="m537.63 92.6h-18.08l-3.16 10.23h-14.1l20.08-54.74h12.41l20.22 54.73h-14.17zm-14.92-10.19h11.77l-5.9-19z" fill="#eb743b"/><path d="m583 73.61-.92-.09-1.08-.1-1.15-.08q-.56 0-1 0a11.24 11.24 0 0 0 -4.92.92 5.65 5.65 0 0 0 -2.75 2.84v25.75h-12.68v-40.71h11.88l.41 5.23a12.38 12.38 0 0 1 3.74-4.4 8.74 8.74 0 0 1 5.17-1.58 15.5 15.5 0 0 1 1.86.11 10.23 10.23 0 0 1 1.67.34z" fill="#eb743b"/><path d="m604.07 93.8a5.64 5.64 0 0 0 4.14-1.45 5.31 5.31 0 0 0 1.43-4h11.88a14.73 14.73 0 0 1 -1.3 6.26 14.35 14.35 0 0 1 -3.59 4.81 16.16 16.16 0 0 1 -5.45 3.1 20.72 20.72 0 0 1 -6.8 1.09 20.49 20.49 0 0 1 -8.38-1.61 16.61 16.61 0 0 1 -6-4.34 18.41 18.41 0 0 1 -3.59-6.54 26.79 26.79 0 0 1 -1.2-8.18v-.87a27 27 0 0 1 1.2-8.2 18.54 18.54 0 0 1 3.59-6.56 16.48 16.48 0 0 1 6-4.31 20.26 20.26 0 0 1 8.29-1.58 21.48 21.48 0 0 1 7 1.09 15.29 15.29 0 0 1 5.45 3.18 14.23 14.23 0 0 1 3.53 5.13 18 18 0 0 1 1.26 6.92h-11.9a9.93 9.93 0 0 0 -.32-2.56 5.56 5.56 0 0 0 -1-2.09 5 5 0 0 0 -1.79-1.39 5.87 5.87 0 0 0 -2.54-.51 5.12 5.12 0 0 0 -3.14.88 5.69 5.69 0 0 0 -1.84 2.35 11.9 11.9 0 0 0 -.85 3.48 40.53 40.53 0 0 0 -.21 4.17v.87a40.73 40.73 0 0 0 .21 4.23 11.87 11.87 0 0 0 .85 3.46 5.32 5.32 0 0 0 1.86 2.37 5.54 5.54 0 0 0 3.21.8z" fill="#eb743b"/><path d="m639.26 66.5a14 14 0 0 1 4.53-3.76 12.52 12.52 0 0 1 5.85-1.35 16.89 16.89 0 0 1 5.55.86 10.57 10.57 0 0 1 4.3 2.78 13 13 0 0 1 2.8 5 24.68 24.68 0 0 1 1 7.52v25.27h-12.71v-25.34a10.11 10.11 0 0 0 -.39-3.06 4.68 4.68 0 0 0 -1.15-2 4 4 0 0 0 -1.82-1 9.52 9.52 0 0 0 -2.42-.28 7.79 7.79 0 0 0 -3.44.66 5.11 5.11 0 0 0 -2.09 1.82v29.18h-12.68v-57.73h12.67z" fill="#eb743b"/><path d="m670.24 51.65a6 6 0 0 1 .51-2.48 5.68 5.68 0 0 1 1.45-2 6.69 6.69 0 0 1 2.22-1.28 9.27 9.27 0 0 1 5.71 0 6.7 6.7 0 0 1 2.22 1.28 5.69 5.69 0 0 1 1.45 2 6.32 6.32 0 0 1 0 5 5.68 5.68 0 0 1 -1.45 2 6.69 6.69 0 0 1 -2.22 1.28 9.27 9.27 0 0 1 -5.71 0 6.67 6.67 0 0 1 -2.22-1.28 5.67 5.67 0 0 1 -1.45-2 6 6 0 0 1 -.51-2.52zm13.46 51.17h-12.7v-40.68h12.7z" fill="#eb743b"/><path d="m707.73 87.75 6.43-25.6h13.34l-13.27 40.68h-12.93l-13.3-40.69h13.38z" fill="#eb743b"/><path d="m750.48 103.58a23.53 23.53 0 0 1 -8.88-1.58 19.18 19.18 0 0 1 -6.6-4.29 18.54 18.54 0 0 1 -4.08-6.28 20.5 20.5 0 0 1 -1.41-7.59v-1.43a27.26 27.26 0 0 1 1.22-8.29 18.49 18.49 0 0 1 3.68-6.67 17.24 17.24 0 0 1 6.16-4.45 21.05 21.05 0 0 1 8.55-1.62 20.55 20.55 0 0 1 7.76 1.39 15.9 15.9 0 0 1 5.83 4 17.52 17.52 0 0 1 3.65 6.23 25.47 25.47 0 0 1 1.26 8.27v5.15h-25.19a9.13 9.13 0 0 0 3 5.38 8.83 8.83 0 0 0 5.94 2 13.87 13.87 0 0 0 5.09-1 10.24 10.24 0 0 0 4.31-3.23l5.79 6.84a14.71 14.71 0 0 1 -2.5 2.63 17.42 17.42 0 0 1 -3.55 2.27 22.53 22.53 0 0 1 -4.55 1.62 22.79 22.79 0 0 1 -5.48.65zm-1.48-32.41a6.34 6.34 0 0 0 -2.78.56 5.46 5.46 0 0 0 -1.94 1.54 7.63 7.63 0 0 0 -1.22 2.33 16.76 16.76 0 0 0 -.68 2.93h12.78v-1a6.28 6.28 0 0 0 -1.54-4.72 6.14 6.14 0 0 0 -4.62-1.64z" fill="#eb743b"/></g></svg>