<svg width="800" height="800" viewBox="0 0 800 800" fill="none" xmlns="http://www.w3.org/2000/svg">
<path d="M258.67 401.658C120.21 456.845 22 591.971 22.0002 749.9C21.9876 753.2 22.6282 756.469 23.885 759.52C25.1418 762.57 26.99 765.342 29.3231 767.675C31.6561 770.008 34.4278 771.856 37.4785 773.113C40.5292 774.37 43.7984 775.011 47.0978 774.998H747.098C753.728 774.972 760.076 772.313 764.746 767.606C769.416 762.899 772.025 756.531 772 749.9C772 591.988 673.817 456.856 535.379 401.658C497.096 431.678 449.068 449.803 397 449.803C344.922 449.803 296.919 431.689 258.67 401.658Z" fill="#9CA3AF"/>
<path d="M394.304 25C504.886 25.0001 594.523 114.547 594.523 225C594.523 335.453 504.886 425 394.304 425C283.722 425 194.084 335.453 194.084 225C194.084 114.547 283.722 25 394.304 25Z" stroke="#9CA3AF" stroke-width="8"/>
<ellipse cx="394.303" cy="225" rx="197.412" ry="197.2" fill="#9CA3AF"/>
<path d="M394.304 143.9C439.143 143.9 475.491 180.21 475.491 225C475.491 269.79 439.143 306.1 394.304 306.1C349.464 306.1 313.116 269.79 313.116 225C313.116 180.21 349.465 143.9 394.304 143.9Z" fill="#E04D28" stroke="#E04D28"/>
<ellipse cx="394.303" cy="225" rx="34.0366" ry="34" fill="#1F2937"/>
<path d="M236.079 262.441C229.343 245.771 227.119 226.066 229.67 205.313C232.221 184.56 239.453 163.52 250.642 144.329C261.83 125.139 276.568 108.497 293.352 96.0849C310.137 83.6725 328.353 75.9456 346.145 73.6491" stroke="#C5C5C5" stroke-width="2"/>
<path opacity="0.7" d="M272.136 267.791C257.836 235.846 257.799 201.828 271.992 171.758C286.189 141.677 313.741 117.428 349.821 103.374" stroke="#C5C5C5" stroke-width="2"/>
<path opacity="0.7" d="M526.112 192.742C536.182 220.14 534.202 248.41 520.515 273.04C506.821 297.683 482.165 317.312 450.44 328.71" stroke="#C5C5C5" stroke-width="2"/>
<path d="M557.158 181.507C564.118 198.004 566.587 217.599 564.278 238.316C561.969 259.033 554.966 280.113 543.971 299.414C532.975 318.716 518.387 335.536 501.694 348.174C484.999 360.813 466.812 368.807 448.983 371.383" stroke="#C5C5C5" stroke-width="2"/>
</svg>
